<mxfile host="app.diagrams.net" modified="2024-04-06T14:03:09.944Z" agent="Mozilla/5.0 (Windows NT 10.0; Win64; x64) AppleWebKit/537.36 (KHTML, like Gecko) Chrome/123.0.0.0 Safari/537.36" etag="sbDcWKC6H3FL_9X_umB-" version="24.2.1" type="github">
  <diagram name="第 1 页" id="B37Alon7Snt6yuw_wCrL">
    <mxGraphModel dx="786" dy="478" grid="0" gridSize="10" guides="1" tooltips="1" connect="1" arrows="1" fold="1" page="0" pageScale="1" pageWidth="827" pageHeight="1169" math="0" shadow="0">
      <root>
        <mxCell id="0" />
        <mxCell id="1" parent="0" />
        <mxCell id="5x5rUgKwlO3JI9YjaT6--17" style="edgeStyle=orthogonalEdgeStyle;rounded=0;orthogonalLoop=1;jettySize=auto;html=1;endArrow=none;endFill=0;" edge="1" parent="1" source="5x5rUgKwlO3JI9YjaT6--2" target="5x5rUgKwlO3JI9YjaT6--9">
          <mxGeometry relative="1" as="geometry" />
        </mxCell>
        <mxCell id="5x5rUgKwlO3JI9YjaT6--18" style="edgeStyle=orthogonalEdgeStyle;rounded=0;orthogonalLoop=1;jettySize=auto;html=1;endArrow=none;endFill=0;" edge="1" parent="1" source="5x5rUgKwlO3JI9YjaT6--2" target="5x5rUgKwlO3JI9YjaT6--14">
          <mxGeometry relative="1" as="geometry" />
        </mxCell>
        <mxCell id="5x5rUgKwlO3JI9YjaT6--19" style="edgeStyle=orthogonalEdgeStyle;rounded=0;orthogonalLoop=1;jettySize=auto;html=1;endArrow=none;endFill=0;" edge="1" parent="1" source="5x5rUgKwlO3JI9YjaT6--2" target="5x5rUgKwlO3JI9YjaT6--16">
          <mxGeometry relative="1" as="geometry">
            <Array as="points">
              <mxPoint x="410" y="85" />
              <mxPoint x="680" y="85" />
            </Array>
          </mxGeometry>
        </mxCell>
        <mxCell id="5x5rUgKwlO3JI9YjaT6--20" style="edgeStyle=orthogonalEdgeStyle;rounded=0;orthogonalLoop=1;jettySize=auto;html=1;endArrow=none;endFill=0;" edge="1" parent="1" source="5x5rUgKwlO3JI9YjaT6--2" target="5x5rUgKwlO3JI9YjaT6--3">
          <mxGeometry relative="1" as="geometry">
            <Array as="points">
              <mxPoint x="410" y="85" />
              <mxPoint x="140" y="85" />
            </Array>
          </mxGeometry>
        </mxCell>
        <mxCell id="5x5rUgKwlO3JI9YjaT6--2" value="&lt;font style=&quot;font-size: 16px;&quot;&gt;资源共享平台&lt;/font&gt;" style="rounded=0;whiteSpace=wrap;html=1;" vertex="1" parent="1">
          <mxGeometry x="300" y="10" width="220" height="50" as="geometry" />
        </mxCell>
        <mxCell id="5x5rUgKwlO3JI9YjaT6--3" value="&lt;font style=&quot;font-size: 16px;&quot;&gt;用户管理&lt;/font&gt;" style="rounded=0;whiteSpace=wrap;html=1;" vertex="1" parent="1">
          <mxGeometry x="65" y="110" width="150" height="50" as="geometry" />
        </mxCell>
        <mxCell id="5x5rUgKwlO3JI9YjaT6--9" value="&lt;font style=&quot;font-size: 16px;&quot;&gt;项目管理&lt;/font&gt;" style="rounded=0;whiteSpace=wrap;html=1;" vertex="1" parent="1">
          <mxGeometry x="245" y="110" width="150" height="50" as="geometry" />
        </mxCell>
        <mxCell id="5x5rUgKwlO3JI9YjaT6--14" value="&lt;font style=&quot;font-size: 16px;&quot;&gt;文件管理&lt;/font&gt;" style="rounded=0;whiteSpace=wrap;html=1;" vertex="1" parent="1">
          <mxGeometry x="425" y="110" width="150" height="50" as="geometry" />
        </mxCell>
        <mxCell id="5x5rUgKwlO3JI9YjaT6--16" value="&lt;span style=&quot;font-size: 16px;&quot;&gt;硬件管理&lt;/span&gt;" style="rounded=0;whiteSpace=wrap;html=1;" vertex="1" parent="1">
          <mxGeometry x="605" y="110" width="150" height="50" as="geometry" />
        </mxCell>
      </root>
    </mxGraphModel>
  </diagram>
</mxfile>
